<?xml version="1.0" encoding="utf-8"?>
<!-- Generator: Adobe Illustrator 25.4.1, SVG Export Plug-In . SVG Version: 6.00 Build 0)  -->
<svg version="1.1" id="Calque_6" xmlns="http://www.w3.org/2000/svg" xmlns:xlink="http://www.w3.org/1999/xlink" x="0px" y="0px"
	 viewBox="0 0 272.2 226.8" style="enable-background:new 0 0 272.2 226.8;" xml:space="preserve">
<style type="text/css">
	.st0{fill:#6EC9ED;stroke:#447C91;stroke-width:2;stroke-miterlimit:10;}
	.st1{fill:none;stroke:#E5E5E5;stroke-width:2;stroke-miterlimit:10;}
	.st2{fill:#E5E4E4;}
	.st3{fill:none;stroke:#E63C11;stroke-width:2;stroke-miterlimit:10;}
	.st4{fill:#7E4695;stroke:#502A5C;stroke-width:2;stroke-miterlimit:10;}
	.st5{fill:#BB8FC0;}
	.st6{fill:#F0F0F0;}
	.st7{fill:#DCECF3;}
	.st8{fill:#EEEB8A;stroke:#B4A30F;stroke-miterlimit:10;}
</style>
<ellipse class="st0" cx="137.1" cy="117.7" rx="79.3" ry="77.8"/>
<path class="st1" d="M92.3,117.1c-1.3,4.1-3,7-4.2,8.9c0,0-1.6,2.3-8.1,9.6c0,0,6.6-1.3,10.8-2.4c3.2-0.9,7.5-2.4,12.4-5.2
	c7.3,2.1,13.5,3.2,17.9,3.8c2.9,0.4,24.2,3.1,43.3-3.1c1.1-0.4,2.3-0.8,3.6-1.4c1.1-0.5,16.1-7.7,15.6-17.8
	c-0.5-8.6-12-14.4-15-15.9c-1.1-0.5-2-0.9-2.8-1.2c-14.2-5.5-32.6-3.8-32.6-3.8c-16.9,1.2-35.1,3.4-40.3,15.2
	C90.6,108.8,91.4,113.8,92.3,117.1z"/>
<ellipse class="st2" cx="116.5" cy="110.7" rx="5.3" ry="4"/>
<ellipse class="st2" cx="140.3" cy="111.1" rx="5.3" ry="4"/>
<ellipse class="st2" cx="164.3" cy="111.1" rx="5.3" ry="4"/>
<path class="st3" d="M214.5,161.9"/>
<path class="st4" d="M72.6,166.6c15.6,5,37.2,10,63,10c27.8,0.1,50.7-5.6,66.9-11c5.8,10.1,11.6,20.1,17.5,30.2
	c-19.6,6.6-46.6,13.2-79.1,13.9c-34.7,0.7-63.6-5.6-84-12C62.1,187.3,67.3,176.9,72.6,166.6z"/>
<path class="st5" d="M200.7,172.6c1.2,2.9,2.3,5.9,3.5,8.8c-8.8,2.4-16.4,3.7-22.4,4.4c-9.3,1.1-16.3,1.1-18.4,1.1
	c-10.8-0.1-22-1.5-22-2.5c0-1,9.4-0.8,26.9-3.8c5.4-0.9,9.4-1.8,10.5-2C188,176.6,195.4,174.4,200.7,172.6z"/>
<path class="st6" d="M178.5,58.4c-5.2-2.3-12.5-3.1-13.6-0.7c-1.3,2.8,6.1,9.9,14,13.2c3.2,1.4,10.5,3.8,11.9,1.7
	C192.4,70.1,186.5,61.8,178.5,58.4z"/>
<path class="st7" d="M195.3,77.9c1-0.4,13.2,16.7,13.3,39c0.2,23.2-12.8,41-13.8,40.6c-0.9-0.4,9.3-16.7,9.2-40.6
	C203.9,93.9,194.4,78.3,195.3,77.9z"/>
<path class="st8" d="M208.7,11.4c-0.7,3.2-2.4,9.2-7.2,15c-3.5,4.2-7.2,6.7-9.8,8.1c2.2,0.7,6.9,2.5,11.1,7
	c4.6,5.1,5.8,10.6,6.2,12.8c0.3-2.2,1.3-7.4,5.4-12.4c4.1-5,9-7,11.1-7.7c-2.6-1.4-7.4-4.4-11.3-10.1
	C210.5,19.2,209.2,14.3,208.7,11.4z"/>
<path class="st8" d="M225.5,56.2c-0.4,1.9-1.4,5.4-4.2,8.9c-2,2.5-4.3,4-5.8,4.8c1.3,0.4,4.1,1.5,6.5,4.2c2.7,3,3.4,6.3,3.7,7.6
	c0.2-1.3,0.8-4.4,3.2-7.3c2.4-3,5.3-4.1,6.6-4.6c-1.5-0.8-4.4-2.6-6.7-6C226.6,60.8,225.8,57.9,225.5,56.2z"/>
<path class="st8" d="M44.2,144.9c-0.4,1.9-1.4,5.4-4.2,8.9c-2,2.5-4.3,4-5.8,4.8c1.3,0.4,4.1,1.5,6.5,4.2c2.7,3,3.4,6.3,3.7,7.6
	c0.2-1.3,0.8-4.4,3.2-7.3c2.4-3,5.3-4.1,6.6-4.6c-1.5-0.8-4.4-2.6-6.7-6C45.3,149.5,44.5,146.5,44.2,144.9z"/>
</svg>
