<?xml version="1.0" encoding="utf-8"?>
<!-- Generator: Adobe Illustrator 25.4.1, SVG Export Plug-In . SVG Version: 6.00 Build 0)  -->
<svg version="1.1" id="Calque_3" xmlns="http://www.w3.org/2000/svg" xmlns:xlink="http://www.w3.org/1999/xlink" x="0px" y="0px"
	 viewBox="0 0 272.2 226.8" style="enable-background:new 0 0 272.2 226.8;" xml:space="preserve">
<style type="text/css">
	.st0{fill:#D2BE8E;}
	.st1{fill:#804E28;}
	.st2{fill:none;stroke:#D43116;stroke-miterlimit:10;}
	.st3{fill:none;stroke:#833C16;stroke-miterlimit:10;}
	.st4{fill:none;stroke:#C19E67;stroke-miterlimit:10;}
	.st5{fill:#965A31;stroke:#833B16;stroke-miterlimit:10;}
	.st6{fill:#EEEB8A;stroke:#B4A30F;stroke-miterlimit:10;}
</style>
<path class="st0" d="M146.4,169.3c34.6,0.3,69.2,0.6,103.7,1c-0.7-4.4-1.4-8.8-2.1-13.2c-9.8-7.7-19.6-15.3-29.4-23
	c-5.9-1.8-11.7-3.7-17.6-5.5c4.3,0,9.7-0.3,15.7-1.6c4.3-0.9,8.1-2.2,11.2-3.4c-2.4-2.1-4.7-4.2-7.1-6.3c1.5-0.7,3-1.3,4.5-2
	c-2.8-1.5-5.9-3.2-9.1-5.4c-3.3-2.2-6.2-4.4-8.7-6.5c-5.5,1.5-10.2,2.3-13.6,2.8c-10.3,1.6-14.7,1-22.6,3c-5.3,1.4-9.5,3.2-12.3,4.6
	c4.4-6.7,10.4-14.4,18.3-22.2c6.1-6,12-10.9,17.4-14.8c-2.3-1-5.4-2-9.1-2.5c-2.1-0.3-4-0.3-5.7-0.3c-6.1,4.2-13.4,10-20.6,17.7
	c-9.6,10.2-15.9,20.4-20,28.4c0.1-20.6,0.2-41.1,0.4-61.7c-1.7,2-3.4,4.1-5.1,6.1c0.1,18.9,0.3,37.9,0.4,56.8
	c-0.8-2.9-2.1-7.5-3.9-13.1c-4.3-12.6-7-16.8-9.3-25.4c-1.2-4.6-2.6-11.3-2.7-19.9c-0.9,0.3-2.3,0.6-3.9,0.6c-4.1-0.1-5.8-2.4-8.7-2
	c-1.1,0.2-2.8,0.8-4.6,3.1c3.1,8.1,6.4,14.4,8.9,18.8c4.8,8.4,7.8,11.3,11.5,18.7c3.7,7.4,5.5,14.2,6.5,18.9
	c-5.5-7.3-12.7-15.7-22.3-24.1c-6.2-5.4-12.3-9.9-17.8-13.5c-1.8-0.7-4-1.3-6.4-1.7c-4.4-0.8-8.3-0.7-11.2-0.4
	c6.7,4.3,14.4,9.9,22.2,17c8.4,7.6,15.1,15.2,20.3,21.8c-11.6-1.4-20.5-3.3-26.7-4.9c0,0-8-2-23.7-3.2c-1.1-0.1-3.6-0.3-6.6,0.6
	c-2.4,0.8-4.2,2.1-5.3,3c7,1.4,14.1,2.8,21.1,4.2c-3.4,0.4-8.1,1.3-13.3,3.5c-5.4,2.3-9.4,5.3-12,7.5c0.4,0.4,0.9,0.9,1.3,1.3
	c-3.1,7.1-6.3,14.3-9.4,21.4c-3.5,2.4-7,4.7-10.5,7.1c-2.3,3.5-4.6,7.1-6.9,10.6c34.1-0.8,68.3-1.7,102.4-2.5
	c0.7-0.7,4.6-4.8,11-4.9C141.6,163.9,145.8,168.6,146.4,169.3z"/>
<path class="st1" d="M249.3,165.4c3.3,2.9,6.6,5.7,9.9,8.6c-39.8,2-81.5,3.1-124.9,3c-40.6,0-79.7-1.1-117.2-2.9
	c1.4-0.9,2.8-1.9,4.2-2.8c34.1-0.8,68.3-1.7,102.4-2.5c0.9-0.9,4.3-4.3,9.8-4.8c7.4-0.7,12.3,4.5,12.9,5.2
	c34.6,0.3,69.2,0.6,103.7,1C249.9,168.6,249.6,167,249.3,165.4z"/>
<path class="st2" d="M248.9,164.5"/>
<path class="st3" d="M249.3,165.4c3.5,2.9,7.1,5.7,10.6,8.6"/>
<path class="st4" d="M219.5,135c9.5,7.4,19,14.7,28.5,22.1"/>
<path class="st4" d="M141.3,158.5c2-3.7,6.1-9.8,13.4-14.2c4.4-2.6,10-4.5,18.7-4.9c23.7-1.1,53.5,9.5,60.4,12.1
	c0.5-0.3,1-0.6,1.5-0.9c-5.6-5.5-11.1-11-16.7-16.6c-2.8-1.2-6.2-2.5-10.1-3.4c-6.9-1.7-12.9-1.9-17.5-1.7"/>
<path class="st4" d="M220.8,117.2c1.1,1.2,2.5,2.7,4.3,4c1.2,0.9,2.3,1.5,3.3,2.1c-1.2,0.5-2.4,0.9-3.6,1.4
	c-7.8,2.7-15.3,3.7-21.7,3.8c-12.9,0.3-23.2,0.9-31.5,3.3c-6.8,2-16,6.4-25.7,17.3"/>
<path class="st4" d="M158.5,114.6c2.1-1.2,5.5-3.1,10-4.5c8.6-2.9,13.9-2,25.5-3.9c3.1-0.5,7.8-1.3,13.6-2.8c2.1,1.8,4.4,3.6,7,5.4
	c4.1,2.8,8,4.9,11.5,6.6c-2.7,1-6.8,2.4-11.9,3.7c-14.5,3.9-18.3,2.6-30,5.4c-7.8,1.9-18.4,4.5-28.6,12.5
	c-6.2,4.9-10.3,10.1-12.7,13.7"/>
<path class="st4" d="M142.9,143.3c4.5-11,12.1-25.8,24.8-40.9c9.6-11.4,19.4-19.7,27.5-25.7c-1.7-0.7-3.7-1.3-6-1.8
	c-3.6-0.8-6.7-0.9-9.3-0.9c-6.1,4.1-13.4,9.8-20.7,17.6c-9.7,10.3-15.9,20.6-19.9,28.4"/>
<path class="st4" d="M139.1,146.4c0.3-29.6,0.6-59.3,0.9-88.9c-1.8,2.3-3.6,4.7-5.4,7c0.2,27.3,0.5,54.5,0.7,81.8"/>
<path class="st4" d="M132.9,142.9c-3.2-25.2-8.9-38.4-13.9-46c-1.4-2.1-6.9-10.1-12.6-21.8c-2.1-4.3-3.7-8-4.7-10.4
	c2.2-2.6,4.1-3.2,5.4-3.3c2.4-0.1,3.5,1.6,6.6,2.1c2.3,0.3,4.2-0.2,5.5-0.7c-0.2,2.6-0.3,6.5,0.3,11.2c1.3,10.7,5.1,18,7,22.2
	c3.3,7.2,7.1,18,8.6,33.3"/>
<path class="st4" d="M130.7,147.2c-6.8-13.1-17.8-30.3-35.3-46.7c-8.5-8-16.9-14.2-24.5-19.1c2.1-0.4,5-0.6,8.4-0.3
	c3.9,0.4,7.1,1.5,9.3,2.4C94,87,100,91.4,106.1,96.7c10.1,8.8,17.6,17.8,23.2,25.5"/>
<path class="st4" d="M126.1,145.7c-9.5-9.6-18.6-14.8-24.8-17.6c-7.7-3.5-14.1-5-25.5-7.6c-10.5-2.4-19.4-3.8-25.7-4.6
	c1-0.7,2.5-1.8,4.6-2.5c4.1-1.5,7.6-1.2,9.3-1c17,1.7,21.9,2.8,21.9,2.8c6.3,1.5,15.5,3.4,27.4,5"/>
<path class="st4" d="M117.7,140.8c-7.4-3.3-17.1-6.7-28.6-8.8c-17.7-3.2-32.8-2-43.1-0.3c2-1.9,4.5-3.9,7.6-5.7
	c8-4.7,15.7-5.7,20.4-5.9"/>
<path class="st4" d="M128.9,160.5c-10.1-6.4-18.8-8.6-24.5-9.5c-12.2-2-19.8,0.7-44.5,3.7c-9.8,1.2-17.6,1.9-22.4,2.2
	c3.6-8.5,7.2-17.1,10.8-25.6"/>
<path class="st4" d="M28.2,160.8c3.5-2.4,7-4.7,10.5-7.1"/>
<path class="st3" d="M15.1,174.6c2.3-1.1,4.6-2.2,6.9-3.3"/>
<path class="st5" d="M260.2,181.3c-36.3-1.1-72.5-2.2-108.8-3.3c-4.5,1.3-10.5,2.5-17.6,2.7c-7.2,0.2-13.3-0.6-17.9-1.6
	c-32.8,0.5-65.7,1.1-98.5,1.6c-1.7-0.3-3-1.5-3.3-3c-0.3-1.7,0.7-3,0.9-3.1c34-0.9,68-1.9,102.1-2.8c3.8,1.4,9.8,3,17.3,3
	c7.8,0,14.1-1.8,17.9-3.3c35.9,0.8,71.7,1.7,107.6,2.5c0.2,0.2,1.8,1.8,1.6,4.2C261.4,179.9,260.5,181,260.2,181.3z"/>
<path class="st4" d="M125.5,163c-1.7-0.8-3.7-1.7-6-2.4c-4.3-1.3-8.1-1.7-11-1.8c-26.8,0.6-53.5,1.3-80.3,1.9
	c-2.3,3.5-4.6,7.1-6.9,10.6c34.1-0.8,68.3-1.7,102.4-2.5c0.6-0.7,5.1-5.2,12-4.8c6.2,0.4,9.9,4.4,10.6,5.2
	c34.6,0.3,69.2,0.6,103.7,1c-0.7-4.4-1.4-8.8-2.1-13.2c-30.9-0.6-61.9-1.3-92.8-1.9c-1.7,0-6.1,0.5-10.3,3.4
	c-2.2,1.5-3.7,3.2-4.6,4.5"/>
<path class="st6" d="M211.8,51.5c-0.4,2-1.5,5.8-4.5,9.4c-2.2,2.6-4.5,4.2-6.1,5.1c1.4,0.4,4.3,1.5,6.9,4.4c2.9,3.2,3.6,6.6,3.9,8
	c0.2-1.4,0.8-4.6,3.4-7.7c2.6-3.1,5.6-4.4,6.9-4.8c-1.6-0.9-4.6-2.8-7.1-6.3C213,56.4,212.2,53.3,211.8,51.5z"/>
<path class="st6" d="M224.2,78.4c-0.3,1.4-1,3.9-3,6.4c-1.5,1.8-3.1,2.8-4.1,3.4c0.9,0.3,2.9,1,4.7,3c2,2.1,2.5,4.5,2.6,5.4
	c0.1-0.9,0.5-3.1,2.3-5.2c1.7-2.1,3.8-3,4.7-3.3c-1.1-0.6-3.1-1.9-4.8-4.3C225,81.7,224.5,79.6,224.2,78.4z"/>
<path class="st6" d="M28.3,117.9c-0.3,1.4-1,3.9-3,6.4c-1.5,1.8-3.1,2.8-4.1,3.4c0.9,0.3,2.9,1,4.7,3c2,2.1,2.5,4.5,2.6,5.4
	c0.1-0.9,0.5-3.1,2.3-5.2c1.7-2.1,3.8-3,4.7-3.3c-1.1-0.6-3.1-1.9-4.8-4.3C29,121.1,28.5,119.1,28.3,117.9z"/>
<path class="st6" d="M71,24.8c-0.5,2.2-1.6,6.3-4.9,10.3c-2.4,2.9-5,4.6-6.7,5.6c1.5,0.5,4.8,1.7,7.6,4.8c3.2,3.5,4,7.3,4.3,8.8
	c0.2-1.5,0.9-5.1,3.7-8.5c2.8-3.4,6.2-4.8,7.6-5.3c-1.8-1-5.1-3.1-7.8-6.9C72.2,30.1,71.3,26.7,71,24.8z"/>
<path class="st6" d="M154.8,69.3c-0.3,1.4-1,3.9-3,6.4c-1.5,1.8-3.1,2.8-4.1,3.4c0.9,0.3,2.9,1,4.7,3c2,2.1,2.5,4.5,2.6,5.4
	c0.1-0.9,0.5-3.1,2.3-5.2c1.7-2.1,3.8-3,4.7-3.3c-1.1-0.6-3.1-1.9-4.8-4.3C155.5,72.6,155,70.5,154.8,69.3z"/>
<path class="st6" d="M257.3,136.6c-0.3,1.4-1,3.9-3,6.4c-1.5,1.8-3.1,2.8-4.1,3.4c0.9,0.3,2.9,1,4.7,3c2,2.1,2.5,4.5,2.6,5.4
	c0.1-0.9,0.5-3.1,2.3-5.2c1.7-2.1,3.8-3,4.7-3.3c-1.1-0.6-3.1-1.9-4.8-4.3C258.1,139.9,257.5,137.8,257.3,136.6z"/>
<path class="st6" d="M161.9,11c-0.3,1.4-1,3.9-3,6.4c-1.5,1.8-3.1,2.8-4.1,3.4c0.9,0.3,2.9,1,4.7,3c2,2.1,2.5,4.5,2.6,5.4
	c0.1-0.9,0.5-3.1,2.3-5.2c1.7-2.1,3.8-3,4.7-3.3c-1.1-0.6-3.1-1.9-4.8-4.3C162.7,14.3,162.1,12.2,161.9,11z"/>
</svg>
