<?xml version="1.0" encoding="utf-8"?>
<!-- Generator: Adobe Illustrator 25.4.1, SVG Export Plug-In . SVG Version: 6.00 Build 0)  -->
<svg version="1.1" xmlns="http://www.w3.org/2000/svg" xmlns:xlink="http://www.w3.org/1999/xlink" x="0px" y="0px"
	 viewBox="0 0 272.2 226.8" style="enable-background:new 0 0 272.2 226.8;" xml:space="preserve">
<style type="text/css">
	.st0{fill:#EEEB8A;stroke:#B4A30F;stroke-miterlimit:10;}
	.st1{fill:#9E803B;stroke:#555003;stroke-miterlimit:10;}
	.st2{fill:#4FA13F;stroke:#035D27;stroke-miterlimit:10;}
</style>
<g id="Calque_6">
	<path class="st0" d="M230.9,56.2c-0.3,1.8-1.2,5.3-3.6,8.6c-1.7,2.4-3.6,3.9-4.9,4.7c1.1,0.4,3.4,1.4,5.5,4
		c2.3,2.9,2.9,6.1,3.1,7.4c0.1-1.2,0.6-4.2,2.7-7.1c2-2.9,4.5-4,5.5-4.4c-1.3-0.8-3.7-2.5-5.6-5.8C231.8,60.7,231.2,57.9,230.9,56.2
		z"/>
	<path class="st0" d="M253.2,30.7c-0.4,2.1-1.5,6.1-4.7,10.1c-2.3,2.8-4.8,4.5-6.5,5.5c1.5,0.4,4.6,1.6,7.4,4.6c3.1,3.3,4,7,4.2,8.5
		c0.2-1.5,0.8-4.9,3.5-8.3c2.7-3.4,5.9-4.7,7.3-5.2c-1.7-0.9-5-2.9-7.6-6.6C254.5,35.9,253.6,32.6,253.2,30.7z"/>
	<path class="st0" d="M184.9,27.6c-0.4,2.1-1.6,6.1-4.8,10c-2.3,2.8-4.8,4.5-6.5,5.4c1.4,0.4,4.6,1.6,7.4,4.7
		c3.1,3.4,3.9,7.1,4.1,8.6c0.2-1.5,0.9-4.9,3.6-8.2c2.7-3.3,6-4.7,7.4-5.1c-1.7-0.9-4.9-3-7.6-6.7C186.1,32.8,185.3,29.5,184.9,27.6
		z"/>
	<path class="st0" d="M256.3,73.1c-0.4,2.1-1.6,6.1-4.8,10c-2.3,2.8-4.8,4.5-6.5,5.4c1.4,0.4,4.6,1.6,7.4,4.7
		c3.1,3.4,3.9,7.1,4.1,8.6c0.2-1.5,0.9-4.9,3.6-8.2c2.7-3.3,6-4.7,7.4-5.1c-1.7-0.9-4.9-3-7.6-6.7C257.5,78.3,256.6,75,256.3,73.1z"
		/>
	<path class="st0" d="M216.8,91.4c-0.3,1.3-1,3.8-3,6.3c-1.4,1.7-3,2.8-4.1,3.4c0.9,0.3,2.9,1,4.6,2.9c1.9,2.1,2.4,4.4,2.6,5.4
		c0.1-0.9,0.5-3.1,2.2-5.2c1.7-2.1,3.8-2.9,4.6-3.2c-1.1-0.6-3.1-1.8-4.7-4.2C217.5,94.6,217,92.5,216.8,91.4z"/>
	<path class="st0" d="M235.1,127.6c-0.3,1.3-1,3.8-3,6.3c-1.4,1.7-3,2.8-4.1,3.4c0.9,0.3,2.9,1,4.6,2.9c1.9,2.1,2.4,4.4,2.6,5.4
		c0.1-0.9,0.5-3.1,2.2-5.2c1.7-2.1,3.8-2.9,4.6-3.2c-1.1-0.6-3.1-1.8-4.7-4.2C235.9,130.9,235.3,128.8,235.1,127.6z"/>
</g>
<g id="Calque_5">
	<path class="st1" d="M59.8,148.9c44.2-26.1,88.3-52.2,132.5-78.3c0.6-0.5,1.3-0.3,1.5,0c0.1,0.3,0,0.7-0.3,1
		c-43.8,27-87.6,54-131.4,81C61.3,151.4,60.5,150.1,59.8,148.9z"/>
	<path class="st2" d="M3.7,180.8c-0.1,0.4-0.7,2.6,0.6,4.7c1.2,1.9,3.1,2.5,3.5,2.6c23-14.5,45.9-29,68.9-43.5c-1-1.7-2-3.3-3-5
		C50.4,153.3,27,167,3.7,180.8z"/>
</g>
</svg>
